<?xml version="1.0" encoding="iso-8859-1"?>
<!-- Uploaded to: SVG Repo, www.svgrepo.com, Generator: SVG Repo Mixer Tools -->
<!DOCTYPE svg PUBLIC "-//W3C//DTD SVG 1.1//EN" "http://www.w3.org/Graphics/SVG/1.1/DTD/svg11.dtd">
<svg fill="#000000" height="800px" width="800px" version="1.1" id="Capa_1" xmlns="http://www.w3.org/2000/svg" xmlns:xlink="http://www.w3.org/1999/xlink" 
	 viewBox="0 0 467.439 467.439" xml:space="preserve">
<g id="XMLID_283_">
	<path id="XMLID_284_" d="M414.82,110.574c0-36.995-91.039-40.988-130.186-40.988c-15.047,0-37.739,0.616-60.006,3.445
		l-19.224-61.885c-1.271-4.056-4.116-7.449-7.904-9.389c-3.797-1.955-8.225-2.296-12.241-0.934l-121.803,40.6
		c-8.299,2.771-12.788,11.74-10.018,20.047c2.761,8.292,11.714,12.788,20.045,10.018l106.451-35.488l13.351,42.982
		c-22.122,6.017-38.827,15.778-38.827,31.601c0,0.723,0.046,1.431,0.144,2.146l7.106,52.103c-7.661,14.957-5.6,39.111-4.069,50.369
		c1.993,14.714,6.519,32.5,16.705,42.404l24.04,176.523c0.357,30.065,60.6,33.314,86.542,33.314
		c25.613,0,84.671-3.172,86.489-32.195l24.199-177.642c10.178-9.897,14.705-27.668,16.705-42.365
		c1.538-11.297,3.607-35.557-4.123-50.514l6.505-52.179C414.781,111.883,414.82,111.236,414.82,110.574z M188.248,186.588
		c0.282-2.663,0.654-5.036,1.27-6.603c3.417-3.454,5.098-8.353,4.428-13.276l-7.105-52.095c3.141-1.628,8.642-3.478,15.884-5.265
		l23.993,77.238H188.248z M215.122,264.461c0-9.947,8.063-18.011,18.011-18.011c9.947,0,18.011,8.064,18.011,18.011
		c0,9.947-8.064,18.011-18.011,18.011C223.186,282.472,215.122,274.408,215.122,264.461z M231.132,225.499
		c0-9.947,8.063-18.011,18.011-18.011c9.947,0,18.011,8.064,18.011,18.011c0,9.947-8.064,18.011-18.011,18.011
		C239.195,243.51,231.132,235.447,231.132,225.499z M229.283,319.893l7.341-26.162c1.56-5.515,7.281-8.734,12.796-7.174l9.16,2.564
		l20.721,5.819c2.641,0.752,4.884,2.518,6.238,4.914c1.348,2.396,1.681,5.235,0.936,7.882l-7.35,26.162
		c-0.714,2.571-2.441,4.739-4.739,6.101c-0.061,0.037-0.098,0.106-0.175,0.145c-2.396,1.346-5.235,1.681-7.882,0.935l-29.867-8.39
		C230.948,331.13,227.731,325.408,229.283,319.893z M249.142,422.615c-9.947,0-18.011-8.064-18.011-18.011
		c0-9.947,8.064-18.011,18.011-18.011c9.947,0,18.01,8.064,18.01,18.011C267.152,414.552,259.089,422.615,249.142,422.615z
		 M341.402,410.74c-0.944,3.165-3.111,5.813-6.017,7.372l-32.75,17.618c-6.049,3.249-13.588,0.981-16.836-5.067l-15.435-28.68
		c-1.559-2.905-1.902-6.307-0.95-9.463c0.942-3.165,3.111-5.813,6.009-7.373l11.13-5.986l21.628-11.632
		c2.426-1.309,5.059-1.499,7.592-1.142c3.78,0.541,7.295,2.588,9.242,6.201l15.435,28.688
		C342.009,404.175,342.352,407.584,341.402,410.74z M295.736,336.663c0-9.947,8.064-18.011,18.011-18.011
		c9.947,0,18.011,8.064,18.011,18.011c0,9.947-8.064,18.011-18.011,18.011C303.8,354.674,295.736,346.611,295.736,336.663z
		 M354.699,263.553c-1.126,3.096-3.438,5.629-6.42,7.02l-33.701,15.725c-6.223,2.914-13.617,0.221-16.522-6.001l-13.785-29.518
		c-1.393-2.982-1.544-6.405-0.412-9.501c1.119-3.098,3.431-5.631,6.42-7.022l33.693-15.725c6.223-2.913,13.619-0.22,16.532,6.003
		l13.775,29.517C355.673,257.032,355.825,260.455,354.699,263.553z M380.436,179.985c0.623,1.567,0.995,3.94,1.27,6.603H259.91
		l-25.674-82.64c14.095-1.604,30.909-2.67,50.398-2.67c53.587,0,87.471,7.935,97.878,13.366l-6.528,52.249
		C375.375,171.754,377.058,176.57,380.436,179.985z"/>
	<circle id="XMLID_295_" cx="249.143" cy="225.499" r="7.59"/>
	<circle id="XMLID_296_" cx="233.133" cy="264.461" r="7.59"/>
	<circle id="XMLID_297_" cx="313.747" cy="336.663" r="7.59"/>
	<circle id="XMLID_298_" cx="249.143" cy="404.605" r="7.59"/>
</g>
</svg>